# xmcd
#
# Track frame offsets:
#	150
#	12907
#	24305
#	35632
#	50030
#	60835
#	73580
#	84630
#	97537
#	109432
#	122695
#
# Disc length: 1814 seconds
#
# Revision: 0
# Processed by: cddbd v1.5.2PL0 Copyright (c) Steve Scherf et al.
# Submitted via: EasyCDDAExtractor 10.2.0.1
#
DISCID=8607140b
DTITLE=The Lewis Family - High Cotton
DYEAR=1998
DGENRE=Gospel
TTITLE0=Every Day Will Be Sunday
TTITLE1=Ever Faithful Friend
TTITLE2=Jesus Is The Light
TTITLE3=If I Could See The World Thru The Eyes Os A Child
TTITLE4=He's Got The Whole World In The Palms Of His Hand
TTITLE5=When I'm Singing His Praises
TTITLE6=What Your Worlds Coming To
TTITLE7=We Were Walking In High Cotton
TTITLE8=The Captain Reached Down For My Soul
TTITLE9=Just Over In Gloryland
TTITLE10=Looking Thru The Windows Of Heaven
EXTD=
EXTT0=
EXTT1=
EXTT2=
EXTT3=
EXTT4=
EXTT5=
EXTT6=
EXTT7=
EXTT8=
EXTT9=
EXTT10=
PLAYORDER=
